{
  "asset": {
    "generator": "OpenSceneGraph 3.5.6",
    "version": "2.0"
  },
  "accessors": [
    {
      "type": "VEC3",
      "componentType": 5126,
      "count": 19884,
      "max": [
        7.837176322937012,
        2.2569684982299805,
        12.709023475646973
      ],
      "min": [
        -7.837170124053955,
        -1.9448299407958984,
        -6.491519927978516
      ],
      "bufferView": 0,
      "byteOffset": 0
    },
    {
      "type": "VEC3",
      "componentType": 5126,
      "count": 19884,
      "bufferView": 0,
      "byteOffset": 12
    },
    {
      "type": "VEC4",
      "componentType": 5126,
      "count": 19884,
      "bufferView": 0,
      "byteOffset": 24
    },
    {
      "type": "VEC2",
      "componentType": 5126,
      "count": 19884,
      "bufferView": 0,
      "byteOffset": 40
    },
    {
      "type": "SCALAR",
      "componentType": 5123,
      "count": 54660,
      "bufferView": 1,
      "byteOffset": 0
    },
    {
      "type": "SCALAR",
      "componentType": 5123,
      "count": 144714,
      "bufferView": 1,
      "byteOffset": 109320
    },
    {
      "type": "SCALAR",
      "componentType": 5123,
      "count": 528,
      "bufferView": 1,
      "byteOffset": 398748
    },
    {
      "type": "SCALAR",
      "componentType": 5123,
      "count": 606,
      "bufferView": 1,
      "byteOffset": 399804
    },
    {
      "type": "SCALAR",
      "componentType": 5123,
      "count": 918,
      "bufferView": 1,
      "byteOffset": 401016
    },
    {
      "type": "SCALAR",
      "componentType": 5123,
      "count": 1992,
      "bufferView": 1,
      "byteOffset": 402852
    },
    {
      "type": "VEC3",
      "componentType": 5126,
      "count": 57488,
      "max": [
        1.8231946229934692,
        0.8178638815879822,
        13.574377059936523
      ],
      "min": [
        -1.8231899738311768,
        -2.8705999851226807,
        -5.23354434967041
      ],
      "bufferView": 2,
      "byteOffset": 0
    },
    {
      "type": "VEC3",
      "componentType": 5126,
      "count": 57488,
      "bufferView": 2,
      "byteOffset": 12
    },
    {
      "type": "VEC4",
      "componentType": 5126,
      "count": 57488,
      "bufferView": 2,
      "byteOffset": 24
    },
    {
      "type": "VEC2",
      "componentType": 5126,
      "count": 57488,
      "bufferView": 2,
      "byteOffset": 40
    },
    {
      "type": "VEC3",
      "componentType": 5126,
      "count": 189,
      "max": [
        0.399652361869812,
        0.7383031249046326,
        9.792854309082031
      ],
      "min": [
        -0.39965200424194336,
        0.2525480091571808,
        8.785200119018555
      ],
      "bufferView": 3,
      "byteOffset": 0
    },
    {
      "type": "VEC3",
      "componentType": 5126,
      "count": 189,
      "bufferView": 3,
      "byteOffset": 12
    },
    {
      "type": "VEC4",
      "componentType": 5126,
      "count": 189,
      "bufferView": 3,
      "byteOffset": 24
    },
    {
      "type": "VEC2",
      "componentType": 5126,
      "count": 189,
      "bufferView": 3,
      "byteOffset": 40
    },
    {
      "type": "VEC3",
      "componentType": 5126,
      "count": 242,
      "max": [
        0.4765332043170929,
        0.8436592817306519,
        8.87420654296875
      ],
      "min": [
        -0.4765300452709198,
        0.31875601410865784,
        6.94350004196167
      ],
      "bufferView": 4,
      "byteOffset": 0
    },
    {
      "type": "VEC3",
      "componentType": 5126,
      "count": 242,
      "bufferView": 4,
      "byteOffset": 12
    },
    {
      "type": "VEC4",
      "componentType": 5126,
      "count": 242,
      "bufferView": 4,
      "byteOffset": 24
    },
    {
      "type": "VEC2",
      "componentType": 5126,
      "count": 242,
      "bufferView": 4,
      "byteOffset": 40
    },
    {
      "type": "VEC3",
      "componentType": 5126,
      "count": 334,
      "max": [
        0.4765332043170929,
        0.8420340418815613,
        8.874198913574219
      ],
      "min": [
        -0.4765300452709198,
        0.30738699436187744,
        6.943026065826416
      ],
      "bufferView": 5,
      "byteOffset": 0
    },
    {
      "type": "VEC3",
      "componentType": 5126,
      "count": 334,
      "bufferView": 5,
      "byteOffset": 12
    },
    {
      "type": "VEC4",
      "componentType": 5126,
      "count": 334,
      "bufferView": 5,
      "byteOffset": 24
    },
    {
      "type": "VEC2",
      "componentType": 5126,
      "count": 334,
      "bufferView": 5,
      "byteOffset": 40
    },
    {
      "type": "VEC3",
      "componentType": 5126,
      "count": 490,
      "max": [
        0.4170440435409546,
        0.9246650338172913,
        8.834943771362305
      ],
      "min": [
        -0.417044997215271,
        0.41365399956703186,
        7.331679821014404
      ],
      "bufferView": 6,
      "byteOffset": 0
    },
    {
      "type": "VEC3",
      "componentType": 5126,
      "count": 490,
      "bufferView": 6,
      "byteOffset": 12
    },
    {
      "type": "VEC4",
      "componentType": 5126,
      "count": 490,
      "bufferView": 6,
      "byteOffset": 24
    },
    {
      "type": "VEC2",
      "componentType": 5126,
      "count": 490,
      "bufferView": 6,
      "byteOffset": 40
    }
  ],
  "bufferViews": [
    {
      "buffer": 0,
      "byteOffset": 0,
      "byteLength": 954432,
      "byteStride": 48,
      "target": 34962
    },
    {
      "buffer": 0,
      "byteOffset": 954432,
      "byteLength": 406836,
      "target": 34963
    },
    {
      "buffer": 0,
      "byteOffset": 1361268,
      "byteLength": 2759424,
      "byteStride": 48,
      "target": 34962
    },
    {
      "buffer": 0,
      "byteOffset": 4120692,
      "byteLength": 9072,
      "byteStride": 48,
      "target": 34962
    },
    {
      "buffer": 0,
      "byteOffset": 4129764,
      "byteLength": 11616,
      "byteStride": 48,
      "target": 34962
    },
    {
      "buffer": 0,
      "byteOffset": 4141380,
      "byteLength": 16032,
      "byteStride": 48,
      "target": 34962
    },
    {
      "buffer": 0,
      "byteOffset": 4157412,
      "byteLength": 23520,
      "byteStride": 48,
      "target": 34962
    }
  ],
  "samplers": [
    {
      "magFilter": 9729,
      "minFilter": 9987,
      "wrapS": 10497,
      "wrapT": 10497
    }
  ],
  "textures": [
    {
      "source": 0,
      "sampler": 0
    },
    {
      "source": 2,
      "sampler": 0
    },
    {
      "source": 3,
      "sampler": 0
    },
    {
      "source": 1,
      "sampler": 0
    },
    {
      "source": 4,
      "sampler": 0
    },
    {
      "source": 6,
      "sampler": 0
    },
    {
      "source": 7,
      "sampler": 0
    },
    {
      "source": 5,
      "sampler": 0
    },
    {
      "source": 8,
      "sampler": 0
    },
    {
      "source": 12,
      "sampler": 0
    },
    {
      "source": 10,
      "sampler": 0
    },
    {
      "source": 11,
      "sampler": 0
    },
    {
      "source": 9,
      "sampler": 0
    }
  ],
  "images": [
    {
      "name": "fuz_albedo.jpg",
      "mimeType": "image/jpeg",
      "uri": "images/fuz_albedo.jpg"
    },
    {
      "name": "fuz_metallic.jpg",
      "mimeType": "image/png",
      "uri": "images/fuz_metallic.png"
    },
    {
      "name": "fuz_normal.png",
      "mimeType": "image/png",
      "uri": "images/fuz_normal.png"
    },
    {
      "name": "fuz_AO.jpg",
      "mimeType": "image/jpeg",
      "uri": "images/fuz_AO.jpg"
    },
    {
      "name": "int_albedo.jpg",
      "mimeType": "image/jpeg",
      "uri": "images/int_albedo.jpg"
    },
    {
      "name": "int_metallic.jpg",
      "mimeType": "image/png",
      "uri": "images/int_metallic.png"
    },
    {
      "name": "int_normal.png",
      "mimeType": "image/png",
      "uri": "images/int_normal.png"
    },
    {
      "name": "int_AO.jpg",
      "mimeType": "image/jpeg",
      "uri": "images/int_AO.jpg"
    },
    {
      "name": "glass_albedo.jpg_rgba",
      "mimeType": "image/png",
      "uri": "images/glass_albedo.jpg_rgba.png"
    },
    {
      "name": "glass_metallic.jpg",
      "mimeType": "image/png",
      "uri": "images/glass_metallic.png"
    },
    {
      "name": "glass_normal.png",
      "mimeType": "image/png",
      "uri": "images/glass_normal.png"
    },
    {
      "name": "glass_AO.jpg",
      "mimeType": "image/jpeg",
      "uri": "images/glass_AO.jpg"
    },
    {
      "name": "glass_emissive.jpg",
      "mimeType": "image/jpeg",
      "uri": "images/glass_emissive.jpg"
    }
  ],
  "buffers": [
    {
      "uri": "MiG_Project_1.42.bin",
      "byteLength": 4180932
    }
  ],
  "materials": [
    {
      "name": "fuz",
      "doubleSided": true,
      "pbrMetallicRoughness": {
        "baseColorTexture": {
          "index": 0
        },
        "metallicRoughnessTexture": {
          "index": 3
        }
      },
      "normalTexture": {
        "index": 1
      },
      "occlusionTexture": {
        "index": 2
      },
      "extensions": {
        "KHR_materials_specular": {
          "specularFactor": 0.44119256516425587
        }
      }
    },
    {
      "name": "int",
      "doubleSided": true,
      "pbrMetallicRoughness": {
        "baseColorTexture": {
          "index": 4
        },
        "metallicRoughnessTexture": {
          "index": 7
        }
      },
      "normalTexture": {
        "index": 5
      },
      "occlusionTexture": {
        "index": 6
      }
    },
    {
      "name": "glass",
      "alphaMode": "BLEND",
      "doubleSided": true,
      "pbrMetallicRoughness": {
        "baseColorTexture": {
          "index": 8
        },
        "metallicRoughnessTexture": {
          "index": 12
        }
      },
      "emissiveFactor": [
        1,
        1,
        1
      ],
      "emissiveTexture": {
        "index": 9
      },
      "normalTexture": {
        "index": 10
      },
      "occlusionTexture": {
        "index": 11
      }
    }
  ],
  "meshes": [
    {
      "name": "defaultMaterial",
      "primitives": [
        {
          "attributes": {
            "POSITION": 0,
            "NORMAL": 1,
            "TANGENT": 2,
            "TEXCOORD_0": 3
          },
          "mode": 4,
          "material": 0,
          "indices": 4
        }
      ]
    },
    {
      "name": "defaultMaterial",
      "primitives": [
        {
          "attributes": {
            "POSITION": 10,
            "NORMAL": 11,
            "TANGENT": 12,
            "TEXCOORD_0": 13
          },
          "mode": 4,
          "material": 1,
          "indices": 5
        }
      ]
    },
    {
      "name": "defaultMaterial",
      "primitives": [
        {
          "attributes": {
            "POSITION": 14,
            "NORMAL": 15,
            "TANGENT": 16,
            "TEXCOORD_0": 17
          },
          "mode": 4,
          "material": 2,
          "indices": 6
        }
      ]
    },
    {
      "name": "defaultMaterial",
      "primitives": [
        {
          "attributes": {
            "POSITION": 18,
            "NORMAL": 19,
            "TANGENT": 20,
            "TEXCOORD_0": 21
          },
          "mode": 4,
          "material": 0,
          "indices": 7
        }
      ]
    },
    {
      "name": "defaultMaterial",
      "primitives": [
        {
          "attributes": {
            "POSITION": 22,
            "NORMAL": 23,
            "TANGENT": 24,
            "TEXCOORD_0": 25
          },
          "mode": 4,
          "material": 1,
          "indices": 8
        }
      ]
    },
    {
      "name": "defaultMaterial",
      "primitives": [
        {
          "attributes": {
            "POSITION": 26,
            "NORMAL": 27,
            "TANGENT": 28,
            "TEXCOORD_0": 29
          },
          "mode": 4,
          "material": 2,
          "indices": 9
        }
      ]
    }
  ],
  "nodes": [
    {
      "name": "Collada visual scene group",
      "rotation": [
        0.7071067966408607,
        0,
        0,
        0.7071067657322341
      ],
      "children": [
        1,
        6,
        9
      ]
    },
    {
      "name": "fuz",
      "translation": [
        0,
        1.078160047531128,
        -1.9558199644088745
      ],
      "children": [
        2,
        4
      ]
    },
    {
      "name": "Group_3",
      "children": [
        3
      ]
    },
    {
      "name": "defaultMaterial",
      "mesh": 0
    },
    {
      "name": "Group_23",
      "children": [
        5
      ]
    },
    {
      "name": "defaultMaterial",
      "mesh": 1
    },
    {
      "name": "glass",
      "translation": [
        0,
        1.078160047531128,
        -1.9558199644088745
      ],
      "children": [
        7
      ]
    },
    {
      "name": "Group_45",
      "children": [
        8
      ]
    },
    {
      "name": "defaultMaterial",
      "mesh": 2
    },
    {
      "name": "canopy",
      "translation": [
        0,
        1.078160047531128,
        -1.9558199644088745
      ],
      "children": [
        10,
        12,
        14
      ]
    },
    {
      "name": "Group_67",
      "children": [
        11
      ]
    },
    {
      "name": "defaultMaterial",
      "mesh": 3
    },
    {
      "name": "Group_83",
      "children": [
        13
      ]
    },
    {
      "name": "defaultMaterial",
      "mesh": 4
    },
    {
      "name": "Group_99",
      "children": [
        15
      ]
    },
    {
      "name": "defaultMaterial",
      "mesh": 5
    },
    {
      "name": "Sketchfab_model",
      "translation": [
        -0.786094069480896,
        0.728718638420105,
        -40.16680908203125
      ],
      "rotation": [
        -0.5092614182060222,
        0.14277135395506715,
        0.22909641949757806,
        0.8171805044670126
      ],
      "children": [
        0
      ]
    }
  ],
  "scenes": [
    {
      "name": "Scene",
      "nodes": [
        16
      ]
    }
  ],
  "extensionsUsed": [
    "KHR_materials_specular"
  ]
}